# xmcd
#
# Track frame offsets:
# 150
# 17017
# 34929
# 52192
# 67483
# 80792
# 107332
# 122246
# 149316
# 165867
#
# Disc length: 2414 seconds
#
#
# Revision: 0
# Processed by: cddbd v1.5.2PL0 Copyright (c) Steve Scherf et al.
# Submitted via: FreeRIP 2.951 
#
DISCID=8c096c0a
DTITLE=Danielle Talamini - The Road Rises
DYEAR=2008
DGENRE=Country
TTITLE0=Pack My Bags
TTITLE1=Save Me
TTITLE2=Mercury Running
TTITLE3=No One to Me
TTITLE4=Already Gone
TTITLE5=Sky Turns Red
TTITLE6=Underground
TTITLE7=Conversation
TTITLE8=Water from the Well
TTITLE9=The Road Rises
EXTD=
EXTT0=
EXTT1=
EXTT2=
EXTT3=
EXTT4=
EXTT5=
EXTT6=
EXTT7=
EXTT8=
EXTT9=
PLAYORDER=
